<?xml version="1.0" encoding="UTF-8" standalone="no"?>
<!DOCTYPE svg PUBLIC "-//W3C//DTD SVG 1.1//EN" "http://www.w3.org/Graphics/SVG/1.1/DTD/svg11.dtd">
<svg width="100%" height="100%" viewBox="0 0 192 192" version="1.1" xmlns="http://www.w3.org/2000/svg" xmlns:xlink="http://www.w3.org/1999/xlink" xml:space="preserve" xmlns:serif="http://www.serif.com/" style="fill-rule:evenodd;clip-rule:evenodd;stroke-linejoin:round;stroke-miterlimit:2;">
    <g transform="matrix(0.64,0,0,0.64,0,0)">
        <g transform="matrix(1,0,0,1,3.19328,-3.19506)">
            <g transform="matrix(65.0054,-65.0054,-65.0054,-65.0054,184.787,160.815)">
                <path d="M0.982,0.579C0.725,0.721 0.401,0.676 0.194,0.468C-0.065,0.21 -0.065,-0.21 0.194,-0.468C0.401,-0.676 0.725,-0.721 0.982,-0.579C0.993,-0.573 1,-0.561 1,-0.549C1,-0.536 0.993,-0.524 0.982,-0.518C0.933,-0.491 0.888,-0.458 0.85,-0.419C0.619,-0.188 0.619,0.188 0.85,0.419C0.888,0.457 0.933,0.491 0.982,0.518C0.993,0.524 1,0.536 1,0.548C1,0.558 0.996,0.567 0.99,0.573C0.988,0.575 0.985,0.577 0.982,0.579Z" style="fill:url(#_Linear1);fill-rule:nonzero;"/>
            </g>
            <g transform="matrix(236.111,0,0,-236.111,7.22364,171.254)">
                <path d="M0.237,0.144C0.236,0.144 0.234,0.144 0.233,0.144C0.104,0.144 0,0.04 0,-0.089C0,-0.217 0.104,-0.322 0.233,-0.322L0.812,-0.322C0.916,-0.322 1,-0.237 1,-0.133C1,-0.029 0.916,0.055 0.812,0.055C0.811,0.055 0.811,0.055 0.81,0.055C0.793,0.205 0.666,0.322 0.511,0.322C0.389,0.322 0.284,0.249 0.237,0.144Z" style="fill:url(#_Linear2);fill-rule:nonzero;"/>
            </g>
            <g transform="matrix(4.16667,0,0,4.16667,258.141,151.829)">
                <path d="M0,22.881C3.698,22.881 6.696,19.883 6.696,16.185C6.696,12.486 3.698,9.488 0,9.488C-0.023,9.488 -0.045,9.492 -0.068,9.492C-0.664,4.152 -5.191,0 -10.69,0C-15.032,0 -18.768,2.59 -20.441,6.31C-20.494,6.309 -20.546,6.306 -20.599,6.306C-25.176,6.306 -28.887,10.016 -28.887,14.593C-28.887,19.171 -25.176,22.881 -20.599,22.881" style="fill:white;fill-rule:nonzero;"/>
            </g>
            <g transform="matrix(15.289,-15.289,-15.289,-15.289,257.63,89.7316)">
                <path d="M0.816,0.452C0.642,0.352 0.357,0.352 0.183,0.452C0.009,0.552 -0.052,0.491 0.048,0.316C0.147,0.142 0.148,-0.143 0.048,-0.317C-0.052,-0.491 0.009,-0.552 0.183,-0.452C0.358,-0.353 0.642,-0.353 0.817,-0.452C0.991,-0.552 1.052,-0.491 0.952,-0.317C0.852,-0.143 0.852,0.142 0.952,0.316C1.002,0.404 1.012,0.462 0.987,0.487C0.962,0.511 0.904,0.502 0.816,0.452Z" style="fill:url(#_Linear3);fill-rule:nonzero;"/>
            </g>
            <g transform="matrix(12.3823,-12.3823,-12.3823,-12.3823,29.1281,102.945)">
                <path d="M0.817,0.452C0.642,0.352 0.357,0.352 0.183,0.452C0.009,0.552 -0.052,0.491 0.048,0.317C0.147,0.142 0.148,-0.142 0.048,-0.317C-0.052,-0.491 0.009,-0.552 0.183,-0.452C0.358,-0.352 0.642,-0.352 0.817,-0.452C0.991,-0.552 1.052,-0.491 0.952,-0.317C0.852,-0.142 0.852,0.142 0.952,0.317C1.002,0.404 1.012,0.462 0.987,0.487C0.962,0.512 0.904,0.502 0.817,0.452Z" style="fill:url(#_Linear4);fill-rule:nonzero;"/>
            </g>
        </g>
    </g>
    <defs>
        <linearGradient id="_Linear1" x1="0" y1="0" x2="1" y2="0" gradientUnits="userSpaceOnUse" gradientTransform="matrix(1,0,0,-1,0,-5.7649e-05)"><stop offset="0" style="stop-color:rgb(0,174,239);stop-opacity:1"/><stop offset="1" style="stop-color:rgb(66,195,243);stop-opacity:1"/></linearGradient>
        <linearGradient id="_Linear2" x1="0" y1="0" x2="1" y2="0" gradientUnits="userSpaceOnUse" gradientTransform="matrix(1,0,0,-1,0,1.77529e-06)"><stop offset="0" style="stop-color:rgb(208,233,249);stop-opacity:1"/><stop offset="1" style="stop-color:rgb(225,239,250);stop-opacity:1"/></linearGradient>
        <linearGradient id="_Linear3" x1="0" y1="0" x2="1" y2="0" gradientUnits="userSpaceOnUse" gradientTransform="matrix(1,0,0,-1,0,-9.78098e-05)"><stop offset="0" style="stop-color:rgb(253,183,39);stop-opacity:1"/><stop offset="1" style="stop-color:rgb(255,206,34);stop-opacity:1"/></linearGradient>
        <linearGradient id="_Linear4" x1="0" y1="0" x2="1" y2="0" gradientUnits="userSpaceOnUse" gradientTransform="matrix(1,0,0,-1,0,4.17264e-05)"><stop offset="0" style="stop-color:rgb(253,183,39);stop-opacity:1"/><stop offset="1" style="stop-color:rgb(255,206,34);stop-opacity:1"/></linearGradient>
    </defs>
</svg>
