<?xml version="1.0" encoding="UTF-8" standalone="no"?>
<!DOCTYPE svg PUBLIC "-//W3C//DTD SVG 1.1//EN" "http://www.w3.org/Graphics/SVG/1.1/DTD/svg11.dtd">
<svg width="100%" height="100%" viewBox="0 0 192 192" version="1.1" xmlns="http://www.w3.org/2000/svg"
     xml:space="preserve"
     style="fill-rule:evenodd;clip-rule:evenodd;stroke-linejoin:round;stroke-miterlimit:2;">
    <g transform="matrix(0.64,0,0,0.64,0,0)">
        <g transform="matrix(1,0,0,1,6.24933,2.84217e-14)">
            <g transform="matrix(4.16667,0,0,4.16667,196.021,25.071)">
                <path d="M0,36.438C5.889,36.438 10.664,31.664 10.664,25.774C10.664,19.885 5.889,15.11 0,15.11C-0.037,15.11 -0.072,15.116 -0.109,15.116C-1.058,6.612 -8.267,0 -17.024,0C-23.939,0 -29.888,4.125 -32.552,10.048C-32.637,10.046 -32.72,10.042 -32.805,10.042C-40.094,10.042 -46.003,15.951 -46.003,23.24C-46.003,30.529 -40.094,36.438 -32.805,36.438" style="fill:white;fill-rule:nonzero;"/>
            </g>
            <g transform="matrix(84.6876,-84.6876,-84.6876,-84.6876,165.325,187.096)">
                <path d="M0.496,0.44C0.495,0.441 0.494,0.442 0.492,0.444C0.38,0.556 0.197,0.556 0.084,0.444C-0.028,0.331 -0.028,0.149 0.084,0.036L0.591,-0.471C0.682,-0.562 0.83,-0.562 0.921,-0.471C1.012,-0.38 1.012,-0.232 0.921,-0.141C0.92,-0.141 0.919,-0.14 0.919,-0.14C1.036,0.006 1.026,0.22 0.891,0.355C0.784,0.462 0.629,0.49 0.496,0.44Z" style="fill:url(#_Linear1);fill-rule:nonzero;"/>
            </g>
            <g transform="matrix(28.6986,0,0,-28.6986,36.1885,226.259)">
                <path d="M0.458,0.508L0.039,-0.218C-0.041,-0.357 0.006,-0.534 0.145,-0.614C0.191,-0.641 0.241,-0.653 0.29,-0.653C0.39,-0.653 0.488,-0.601 0.542,-0.508L0.961,0.218C1.041,0.357 0.994,0.534 0.855,0.614C0.809,0.641 0.759,0.654 0.71,0.654C0.609,0.654 0.512,0.601 0.458,0.508Z" style="fill:url(#_Linear2);fill-rule:nonzero;"/>
            </g>
            <g transform="matrix(28.6986,0,0,-28.6986,103.321,226.259)">
                <path d="M0.458,0.508L0.039,-0.218C-0.041,-0.357 0.006,-0.534 0.145,-0.614C0.191,-0.641 0.241,-0.653 0.29,-0.653C0.39,-0.653 0.488,-0.601 0.542,-0.508L0.961,0.218C1.041,0.357 0.994,0.534 0.855,0.614C0.809,0.641 0.759,0.654 0.71,0.654C0.609,0.654 0.512,0.601 0.458,0.508Z" style="fill:url(#_Linear3);fill-rule:nonzero;"/>
            </g>
            <g transform="matrix(28.6986,0,0,-28.6986,170.454,226.259)">
                <path d="M0.458,0.508L0.039,-0.218C-0.041,-0.357 0.006,-0.534 0.145,-0.614C0.191,-0.641 0.241,-0.653 0.29,-0.653C0.39,-0.653 0.488,-0.601 0.542,-0.508L0.961,0.218C1.041,0.357 0.994,0.534 0.855,0.614C0.809,0.641 0.759,0.654 0.71,0.654C0.609,0.654 0.512,0.601 0.458,0.508Z" style="fill:url(#_Linear4);fill-rule:nonzero;"/>
            </g>
            <g transform="matrix(28.6986,0,0,-28.6986,57.0219,256.175)">
                <path d="M0.458,0.508L0.039,-0.218C-0.041,-0.357 0.006,-0.534 0.145,-0.614C0.191,-0.641 0.241,-0.653 0.29,-0.653C0.391,-0.653 0.488,-0.601 0.542,-0.508L0.961,0.218C1.041,0.357 0.994,0.534 0.855,0.614C0.809,0.641 0.759,0.654 0.71,0.654C0.609,0.654 0.512,0.601 0.458,0.508Z" style="fill:url(#_Linear5);fill-rule:nonzero;"/>
            </g>
            <g transform="matrix(28.6986,0,0,-28.6986,126.24,256.175)">
                <path d="M0.458,0.508L0.039,-0.218C-0.041,-0.357 0.006,-0.534 0.145,-0.614C0.191,-0.641 0.241,-0.653 0.29,-0.653C0.391,-0.653 0.488,-0.601 0.542,-0.508L0.961,0.218C1.041,0.357 0.994,0.534 0.855,0.614C0.809,0.641 0.759,0.654 0.71,0.654C0.609,0.654 0.512,0.601 0.458,0.508Z" style="fill:url(#_Linear6);fill-rule:nonzero;"/>
            </g>
            <g transform="matrix(28.6986,0,0,-28.6986,195.454,256.175)">
                <path d="M0.458,0.508L0.039,-0.218C-0.041,-0.357 0.006,-0.534 0.145,-0.614C0.191,-0.641 0.241,-0.653 0.29,-0.653C0.39,-0.653 0.488,-0.601 0.542,-0.508L0.961,0.218C1.041,0.357 0.994,0.534 0.855,0.614C0.809,0.641 0.759,0.654 0.71,0.654C0.609,0.654 0.512,0.601 0.458,0.508Z" style="fill:url(#_Linear7);fill-rule:nonzero;"/>
            </g>
        </g>
    </g>
    <defs>
        <linearGradient id="_Linear1" x1="0" y1="0" x2="1" y2="0" gradientUnits="userSpaceOnUse" gradientTransform="matrix(1,0,0,-1,0,-0.0053973)"><stop offset="0" style="stop-color:rgb(208,233,249);stop-opacity:1"/><stop offset="1" style="stop-color:rgb(225,239,250);stop-opacity:1"/></linearGradient>
        <linearGradient id="_Linear2" x1="0" y1="0" x2="1" y2="0" gradientUnits="userSpaceOnUse" gradientTransform="matrix(1,0,0,-1,0,4.83473e-05)"><stop offset="0" style="stop-color:rgb(0,174,239);stop-opacity:1"/><stop offset="1" style="stop-color:rgb(66,195,243);stop-opacity:1"/></linearGradient>
        <linearGradient id="_Linear3" x1="0" y1="0" x2="1" y2="0" gradientUnits="userSpaceOnUse" gradientTransform="matrix(1,0,0,-1,0,4.83473e-05)"><stop offset="0" style="stop-color:rgb(0,174,239);stop-opacity:1"/><stop offset="1" style="stop-color:rgb(66,195,243);stop-opacity:1"/></linearGradient>
        <linearGradient id="_Linear4" x1="0" y1="0" x2="1" y2="0" gradientUnits="userSpaceOnUse" gradientTransform="matrix(1,0,0,-1,0,4.83473e-05)"><stop offset="0" style="stop-color:rgb(0,174,239);stop-opacity:1"/><stop offset="1" style="stop-color:rgb(66,195,243);stop-opacity:1"/></linearGradient>
        <linearGradient id="_Linear5" x1="0" y1="0" x2="1" y2="0" gradientUnits="userSpaceOnUse" gradientTransform="matrix(1,0,0,-1,0,3.27542e-05)"><stop offset="0" style="stop-color:rgb(0,174,239);stop-opacity:1"/><stop offset="1" style="stop-color:rgb(66,195,243);stop-opacity:1"/></linearGradient>
        <linearGradient id="_Linear6" x1="0" y1="0" x2="1" y2="0" gradientUnits="userSpaceOnUse" gradientTransform="matrix(1,0,0,-1,0,3.27542e-05)"><stop offset="0" style="stop-color:rgb(0,174,239);stop-opacity:1"/><stop offset="1" style="stop-color:rgb(66,195,243);stop-opacity:1"/></linearGradient>
        <linearGradient id="_Linear7" x1="0" y1="0" x2="1" y2="0" gradientUnits="userSpaceOnUse" gradientTransform="matrix(1,0,0,-1,0,3.27542e-05)"><stop offset="0" style="stop-color:rgb(0,174,239);stop-opacity:1"/><stop offset="1" style="stop-color:rgb(66,195,243);stop-opacity:1"/></linearGradient>
    </defs>
</svg>
