<?xml version="1.0" encoding="UTF-8" standalone="no"?>
<!DOCTYPE svg PUBLIC "-//W3C//DTD SVG 1.1//EN" "http://www.w3.org/Graphics/SVG/1.1/DTD/svg11.dtd">
<svg width="100%" height="100%" viewBox="0 0 300 214" version="1.1" xmlns="http://www.w3.org/2000/svg" xmlns:xlink="http://www.w3.org/1999/xlink" xml:space="preserve" xmlns:serif="http://www.serif.com/" style="fill-rule:evenodd;clip-rule:evenodd;stroke-linejoin:round;stroke-miterlimit:2;">
    <g transform="matrix(1.01085,0,0,1.01085,-212.065,-236.732)">
        <g id="Ebene-1" serif:id="Ebene 1">
            <g>
                <g transform="matrix(1,0,0,1,314.342,254.983)">
                    <path d="M0,34.691C0.847,34.691 1.654,34.635 2.414,34.522C3.177,34.409 3.846,34.18 4.42,33.829C4.994,33.478 5.449,32.962 5.786,32.274C6.124,31.587 6.293,30.682 6.293,29.556L6.293,5.245C6.293,4.122 6.124,3.215 5.786,2.529C5.449,1.843 4.994,1.311 4.42,0.938C3.846,0.563 3.177,0.312 2.414,0.187C1.654,0.063 0.847,0.002 0,0.002L-0.225,0.002L-0.225,-3.222L13.484,-3.222L13.484,29.182C13.484,30.383 13.654,31.344 13.99,32.067C14.328,32.794 14.777,33.348 15.338,33.735C15.903,34.122 16.57,34.379 17.344,34.504C18.116,34.629 18.93,34.691 19.779,34.691L20.791,34.691L20.791,37.913L-1.014,37.913L-1.014,34.691L0,34.691Z" style="fill:white;fill-rule:nonzero;"/>
                </g>
                <g transform="matrix(1,0,0,1,362.345,272.326)">
                    <path d="M0,-16.405C-1.999,-16.405 -3.666,-16.074 -5.002,-15.413C-6.338,-14.752 -7.404,-13.747 -8.204,-12.397C-9.005,-11.05 -9.572,-9.35 -9.909,-7.303C-10.247,-5.255 -10.415,-2.845 -10.415,-0.073C-10.415,2.601 -10.247,4.96 -9.909,7.007C-9.572,9.057 -8.997,10.779 -8.186,12.179C-7.374,13.577 -6.3,14.632 -4.964,15.342C-3.63,16.054 -1.949,16.409 0.073,16.409C1.772,16.409 3.216,16.054 4.401,15.342C5.588,14.632 6.562,13.577 7.321,12.179C8.085,10.779 8.642,9.05 8.989,6.989C9.339,4.929 9.514,2.549 9.514,-0.147C9.514,-2.87 9.339,-5.249 8.989,-7.284C8.642,-9.319 8.085,-11.012 7.321,-12.362C6.562,-13.708 5.574,-14.72 4.364,-15.395C3.152,-16.068 1.697,-16.405 0,-16.405M16.97,-0.073C16.97,3.622 16.626,6.82 15.939,9.518C15.251,12.213 14.247,14.439 12.924,16.185C11.601,17.937 9.964,19.228 8.017,20.064C6.069,20.9 3.833,21.318 1.31,21.318C-0.163,21.318 -1.498,21.155 -2.698,20.831C-3.896,20.507 -4.978,20.044 -5.938,19.447C-6.899,18.845 -7.749,18.134 -8.486,17.311C-9.223,16.486 -9.867,15.574 -10.415,14.575L-10.901,14.575L-12.251,20.57L-24.538,20.57L-24.538,17.348L-23.938,17.348C-23.065,17.348 -22.247,17.286 -21.485,17.161C-20.723,17.035 -20.061,16.779 -19.501,16.392C-18.936,16.005 -18.488,15.449 -18.15,14.724C-17.815,14.001 -17.646,13.04 -17.646,11.839L-17.646,-29.292C-17.646,-30.417 -17.815,-31.322 -18.15,-32.009C-18.488,-32.696 -18.944,-33.225 -19.519,-33.602C-20.093,-33.977 -20.761,-34.22 -21.524,-34.332C-22.284,-34.442 -23.089,-34.5 -23.938,-34.5L-24.538,-34.5L-24.538,-37.723L-10.415,-37.723L-10.415,-23.636C-10.415,-22.762 -10.427,-21.759 -10.452,-20.621C-10.478,-19.483 -10.515,-18.393 -10.563,-17.342C-10.614,-16.143 -10.665,-14.907 -10.714,-13.634L-10.415,-13.634C-9.84,-14.807 -9.192,-15.869 -8.468,-16.818C-7.742,-17.767 -6.906,-18.573 -5.955,-19.235C-5.009,-19.895 -3.933,-20.408 -2.735,-20.77C-1.536,-21.131 -0.186,-21.313 1.31,-21.313C3.833,-21.313 6.069,-20.895 8.017,-20.057C9.964,-19.222 11.601,-17.935 12.924,-16.201C14.247,-14.464 15.251,-12.261 15.939,-9.587C16.626,-6.917 16.97,-3.743 16.97,-0.073" style="fill:white;fill-rule:nonzero;"/>
                </g>
                <g transform="matrix(1,0,0,1,392.81,272.404)">
                    <path d="M0,-0.151C0,2.696 0.187,5.206 0.562,7.378C0.937,9.552 1.543,11.37 2.381,12.829C3.215,14.292 4.303,15.396 5.641,16.145C6.974,16.894 8.604,17.27 10.525,17.27C12.449,17.27 14.074,16.894 15.397,16.145C16.72,15.396 17.795,14.292 18.619,12.829C19.443,11.37 20.035,9.552 20.398,7.378C20.761,5.206 20.941,2.696 20.941,-0.151C20.941,-2.999 20.752,-5.495 20.381,-7.643C20.004,-9.791 19.404,-11.583 18.582,-13.018C17.758,-14.456 16.676,-15.535 15.343,-16.258C14.006,-16.983 12.375,-17.346 10.45,-17.346C8.529,-17.346 6.906,-16.983 5.583,-16.258C4.257,-15.535 3.184,-14.456 2.36,-13.018C1.536,-11.583 0.937,-9.791 0.562,-7.643C0.187,-5.495 0,-2.999 0,-0.151M28.398,-0.151C28.398,7.068 26.867,12.438 23.81,15.958C20.748,19.479 16.272,21.24 10.375,21.24C7.604,21.24 5.12,20.804 2.924,19.929C0.727,19.056 -1.142,17.732 -2.678,15.958C-4.217,14.187 -5.388,11.956 -6.199,9.271C-7.012,6.587 -7.418,3.447 -7.418,-0.151C-7.418,-7.319 -5.898,-12.651 -2.865,-16.146C0.17,-19.644 4.658,-21.391 10.603,-21.391C13.375,-21.391 15.859,-20.961 18.057,-20.098C20.254,-19.239 22.123,-17.926 23.658,-16.165C25.197,-14.405 26.367,-12.195 27.179,-9.536C27.992,-6.874 28.398,-3.746 28.398,-0.151" style="fill:white;fill-rule:nonzero;"/>
                </g>
                <g transform="matrix(1,0,0,1,446.45,251.013)">
                    <path d="M0,41.883L-22.141,41.883L-22.141,38.661L-21.915,38.661C-21.042,38.661 -20.223,38.6 -19.463,38.475C-18.698,38.349 -18.035,38.092 -17.474,37.705C-16.914,37.319 -16.465,36.763 -16.126,36.037C-15.789,35.315 -15.62,34.354 -15.62,33.153L-15.62,9.216C-15.62,8.092 -15.789,7.186 -16.126,6.499C-16.465,5.813 -16.921,5.281 -17.495,4.908C-18.067,4.533 -18.738,4.282 -19.499,4.157C-20.263,4.033 -21.064,3.971 -21.915,3.971L-22.141,3.971L-22.141,0.747L-10.341,0.747L-8.878,8.354L-8.503,8.354C-8.004,7.205 -7.49,6.123 -6.968,5.113C-6.443,4.102 -5.8,3.215 -5.038,2.453C-4.275,1.692 -3.335,1.092 -2.21,0.656C-1.086,0.219 0.323,0 2.023,0C4.821,0 6.898,0.485 8.264,1.459C9.622,2.436 10.305,3.809 10.305,5.582C10.305,6.381 10.174,7.117 9.911,7.792C9.65,8.467 9.229,9.047 8.653,9.533C8.079,10.02 7.344,10.395 6.445,10.658C5.544,10.92 4.444,11.053 3.148,11.053C3.148,8.928 2.848,7.399 2.248,6.461C1.65,5.526 0.6,5.058 -0.898,5.058C-1.848,5.058 -2.695,5.324 -3.445,5.862C-4.196,6.4 -4.849,7.112 -5.411,7.996C-5.975,8.883 -6.449,9.902 -6.839,11.053C-7.225,12.199 -7.533,13.38 -7.771,14.591C-8.009,15.803 -8.179,17.008 -8.279,18.205C-8.378,19.405 -8.427,20.492 -8.427,21.465L-8.427,33.527C-8.427,34.653 -8.258,35.557 -7.921,36.244C-7.584,36.932 -7.129,37.448 -6.556,37.801C-5.979,38.151 -5.311,38.379 -4.552,38.492C-3.788,38.606 -2.982,38.661 -2.138,38.661L0,38.661L0,41.883Z" style="fill:white;fill-rule:nonzero;"/>
                </g>
                <g transform="matrix(1,0,0,1,479.002,254.233)">
                    <path d="M0,35.441L0,38.663L-20.651,38.663L-20.651,35.441L-20.014,35.441C-19.139,35.441 -18.321,35.379 -17.56,35.254C-16.799,35.129 -16.137,34.872 -15.571,34.485C-15.014,34.098 -14.563,33.544 -14.227,32.817C-13.889,32.094 -13.716,31.133 -13.716,29.932L-13.716,5.995C-13.716,4.872 -13.889,3.965 -14.227,3.279C-14.563,2.593 -15.021,2.061 -15.594,1.688C-16.168,1.313 -16.838,1.062 -17.598,0.937C-18.36,0.813 -19.168,0.752 -20.014,0.752L-20.238,0.752L-20.238,-2.472L-7.826,-2.472L-6.815,3.749L-6.44,3.749C-5.643,2.322 -4.802,1.158 -3.912,0.245C-3.026,-0.667 -2.092,-1.378 -1.104,-1.891C-0.116,-2.402 0.935,-2.753 2.043,-2.94C3.151,-3.126 4.324,-3.222 5.543,-3.222C7.567,-3.222 9.374,-2.927 10.961,-2.341C12.543,-1.753 13.895,-0.854 15.006,0.357C16.115,1.568 16.967,3.124 17.551,5.022C18.139,6.92 18.435,9.18 18.435,11.801L18.435,29.932C18.435,31.133 18.575,32.094 18.861,32.817C19.148,33.544 19.558,34.098 20.08,34.485C20.605,34.872 21.232,35.129 21.955,35.254C22.681,35.379 23.465,35.441 24.316,35.441L24.576,35.441L24.576,38.663L11.2,38.663L11.2,12.176C11.2,10.504 11.052,9.018 10.752,7.719C10.449,6.42 9.97,5.322 9.311,4.422C8.65,3.522 7.783,2.842 6.707,2.379C5.633,1.92 4.324,1.688 2.773,1.688C1.023,1.688 -0.446,2.025 -1.629,2.698C-2.815,3.373 -3.77,4.286 -4.493,5.434C-5.219,6.583 -5.737,7.905 -6.049,9.403C-6.36,10.903 -6.518,12.476 -6.518,14.124L-6.518,30.306C-6.518,31.432 -6.351,32.337 -6.014,33.024C-5.674,33.712 -5.219,34.228 -4.645,34.579C-4.069,34.93 -3.399,35.159 -2.641,35.272C-1.877,35.385 -1.073,35.441 -0.225,35.441L0,35.441Z" style="fill:white;fill-rule:nonzero;"/>
                </g>
                <g transform="matrix(1,0,0,1,297.194,266.407)">
                    <path d="M0,11.84C0,13.465 -0.238,14.938 -0.713,16.261C-1.187,17.583 -1.869,18.709 -2.755,19.633C-3.64,20.557 -4.715,21.267 -5.976,21.768C-7.237,22.268 -8.643,22.517 -10.191,22.517C-12.314,22.517 -13.882,21.924 -14.892,20.738C-15.906,19.552 -16.41,17.758 -16.41,15.363C-16.41,13.864 -16.217,12.538 -15.828,11.391C-15.441,10.243 -14.801,9.274 -13.899,8.487C-13.001,7.701 -11.82,7.088 -10.359,6.653C-8.898,6.214 -7.082,5.947 -4.908,5.846L0,5.621L0,11.84ZM11.987,23.267C11.139,23.267 10.406,23.18 9.795,23.004C9.182,22.83 8.69,22.529 8.316,22.104C7.94,21.682 7.666,21.119 7.49,20.419C7.316,19.721 7.228,18.833 7.228,17.758L7.228,-2.135C7.228,-4.581 6.934,-6.646 6.35,-8.334C5.762,-10.021 4.881,-11.387 3.709,-12.435C2.533,-13.485 1.071,-14.24 -0.675,-14.702C-2.424,-15.164 -4.471,-15.396 -6.818,-15.396C-8.718,-15.396 -10.505,-15.258 -12.177,-14.982C-13.85,-14.707 -15.317,-14.277 -16.578,-13.691C-17.639,-13.197 -18.496,-12.576 -19.178,-11.846C-19.082,-11.849 -18.988,-11.859 -18.893,-11.859L-7.079,-11.859C-5.832,-11.859 -4.666,-11.545 -3.659,-11.003C-3.559,-10.961 -3.447,-10.929 -3.354,-10.881C-2.416,-10.418 -1.699,-9.769 -1.199,-8.932C-0.932,-8.482 -0.717,-7.98 -0.55,-7.435C-0.383,-6.959 -0.272,-6.458 -0.227,-5.943L-0.227,-5.937C-0.076,-4.774 0,-3.506 0,-2.135L0,2.475L-6.37,2.699C-12.239,2.873 -16.623,3.947 -19.52,5.922C-22.417,7.896 -23.864,10.918 -23.864,14.988C-23.864,17.085 -23.564,18.902 -22.966,20.436C-22.366,21.973 -21.537,23.247 -20.475,24.26C-19.413,25.272 -18.152,26.021 -16.69,26.508C-15.231,26.994 -13.65,27.236 -11.953,27.236C-10.354,27.236 -8.986,27.057 -7.851,26.694C-6.713,26.332 -5.697,25.827 -4.797,25.176C-3.897,24.529 -3.073,23.754 -2.324,22.855C-1.576,21.955 -0.801,20.969 0,19.895L0.636,19.895L1.835,26.488L12.211,26.488L12.211,23.267L11.987,23.267Z" style="fill:white;fill-rule:nonzero;"/>
                </g>
                <g transform="matrix(1,0,0,1,327.829,236.169)">
                    <path d="M0,3.926C0,4.825 -0.736,5.559 -1.635,5.559L-5.561,5.559C-6.458,5.559 -7.193,4.825 -7.193,3.926L-7.193,0C-7.193,-0.898 -6.458,-1.633 -5.561,-1.633L-1.635,-1.633C-0.736,-1.633 0,-0.898 0,0L0,3.926Z" style="fill:white;fill-rule:nonzero;"/>
                </g>
                <g transform="matrix(1,0,0,1,258.265,243.647)">
                    <path d="M0,43.723C-0.274,44.359 -0.646,44.845 -1.107,45.183C-1.568,45.52 -2.131,45.746 -2.792,45.857C-2.999,45.895 -3.227,45.912 -3.449,45.937L-3.449,49.246L11.368,49.246L11.368,45.748C10.75,45.609 10.186,45.397 9.702,45.071C9.127,44.683 8.677,44.128 8.352,43.404C8.028,42.68 7.866,41.719 7.866,40.518L7.866,3.206C7.866,2.008 8.028,1.047 8.352,0.323C8.677,-0.4 9.127,-0.957 9.702,-1.345C10.186,-1.67 10.75,-1.882 11.368,-2.023L11.368,-5.523L-1.874,-5.523L-17.608,38.348L-33.493,-5.523L-48.477,-5.523L-48.477,-2.226C-48.181,-2.2 -47.882,-2.174 -47.598,-2.132C-46.834,-2.019 -46.167,-1.776 -45.593,-1.4C-45.018,-1.027 -44.563,-0.496 -44.226,0.19C-43.889,0.879 -43.719,1.784 -43.719,2.908L-43.719,40.891C-43.719,42.017 -43.889,42.922 -44.226,43.612C-44.563,44.297 -45.018,44.815 -45.593,45.166C-46.167,45.516 -46.834,45.746 -47.598,45.857C-47.882,45.9 -48.181,45.926 -48.477,45.953L-48.477,49.246L-35.343,49.246L-35.343,45.899C-35.494,45.875 -35.653,45.866 -35.796,45.84C-36.483,45.714 -37.07,45.459 -37.558,45.071C-38.044,44.683 -38.413,44.128 -38.662,43.404C-38.91,42.68 -39.036,41.719 -39.036,40.518L-39.036,0.36L-21.241,49.246L-17.083,49.246L0.486,0.211L0.486,41.195C0.437,42.243 0.274,43.084 0,43.723" style="fill:white;fill-rule:nonzero;"/>
                </g>
                <g transform="matrix(1,0,0,1,253.317,360.358)">
                    <path d="M0,-53.722L9.595,-20.493C10.318,-17.947 10.959,-15.504 11.521,-13.168C12.085,-10.834 12.539,-8.78 12.889,-7.004C13.262,-8.855 13.693,-10.795 14.18,-12.83C14.668,-14.868 15.264,-17.121 15.959,-19.592L22.702,-43.269C22.777,-43.572 22.865,-43.907 22.964,-44.282C23.064,-44.657 23.151,-45.032 23.228,-45.407C23.301,-45.78 23.371,-46.129 23.434,-46.453C23.495,-46.779 23.528,-47.053 23.528,-47.279C23.528,-48.603 23.111,-49.556 22.271,-50.144C21.434,-50.731 20.17,-51.025 18.471,-51.025L16.709,-51.025L16.709,-54.246L35.439,-54.246L35.439,-51.025L33.979,-51.025C33.23,-51.025 32.572,-50.95 32.013,-50.799C31.451,-50.65 30.943,-50.361 30.494,-49.939C30.045,-49.514 29.635,-48.914 29.258,-48.14C28.885,-47.366 28.512,-46.342 28.135,-45.068L15.174,0.524L8.279,0.524L-4.23,-42.446L-15.957,0.524L-23.038,0.524L-37.088,-46.98C-37.336,-47.778 -37.617,-48.443 -37.928,-48.963C-38.242,-49.488 -38.61,-49.902 -39.033,-50.2C-39.459,-50.5 -39.958,-50.711 -40.532,-50.836C-41.107,-50.961 -41.768,-51.025 -42.518,-51.025L-43.529,-51.025L-43.529,-54.246L-22.402,-54.246L-22.402,-51.025L-24.163,-51.025C-25.711,-51.025 -26.865,-50.731 -27.626,-50.144C-28.39,-49.556 -28.771,-48.625 -28.771,-47.355C-28.771,-46.929 -28.707,-46.492 -28.583,-46.041C-28.457,-45.595 -28.32,-45.082 -28.17,-44.506L-21.127,-19.969C-20.478,-17.648 -19.868,-15.366 -19.291,-13.131C-18.719,-10.898 -18.221,-8.855 -17.795,-7.004C-17.418,-9.006 -16.975,-11.185 -16.463,-13.543C-15.953,-15.904 -15.357,-18.323 -14.684,-20.793L-5.545,-53.722L0,-53.722Z" style="fill:white;fill-rule:nonzero;"/>
                </g>
                <g transform="matrix(1,0,0,1,324.111,305.812)">
                    <path d="M0,51.847C0.875,51.847 1.692,51.786 2.454,51.66C3.221,51.534 3.88,51.28 4.437,50.893C5.002,50.505 5.453,49.95 5.787,49.225C6.126,48.501 6.3,47.54 6.3,46.339L6.3,5.206C6.3,4.084 6.126,3.178 5.787,2.491C5.453,1.804 4.996,1.274 4.425,0.899C3.847,0.524 3.181,0.282 2.416,0.168C1.653,0.057 0.851,-0.002 0,-0.002L-0.971,-0.002L-0.971,-3.224L13.524,-3.224L13.524,46.339C13.524,47.54 13.69,48.501 14.013,49.225C14.334,49.95 14.786,50.505 15.359,50.893C15.937,51.28 16.604,51.534 17.363,51.66C18.125,51.786 18.662,51.847 19.535,51.847L19.94,51.847L19.94,55.071L-0.971,55.071L-0.971,51.847L0,51.847Z" style="fill:white;fill-rule:nonzero;"/>
                </g>
                <g transform="matrix(1,0,0,1,368.286,306.179)">
                    <path d="M0,51.48L0,54.704L-21.731,54.704L-21.731,51.48L-21.285,51.48C-20.411,51.48 -19.877,51.419 -19.116,51.293C-18.353,51.167 -17.69,50.913 -17.131,50.526C-16.564,50.138 -16.116,49.583 -15.782,48.858C-15.444,48.134 -15.276,47.173 -15.276,45.972L-15.276,10.899C-15.276,8.601 -14.967,6.579 -14.34,4.831C-13.716,3.084 -12.815,1.61 -11.64,0.411C-10.465,-0.789 -9.044,-1.694 -7.369,-2.306C-5.696,-2.917 -3.81,-3.224 -1.714,-3.224C0.284,-3.224 1.97,-3.093 3.347,-2.832C4.717,-2.568 5.822,-2.202 6.66,-1.726C7.496,-1.249 8.101,-0.688 8.478,-0.041C8.852,0.61 9.037,1.334 9.037,2.132C9.037,2.833 8.884,3.45 8.571,3.987C8.261,4.526 7.819,4.974 7.261,5.336C6.698,5.7 6.033,5.974 5.274,6.159C4.511,6.347 3.668,6.44 2.743,6.44C2.743,5.667 2.66,4.913 2.5,4.175C2.338,3.437 2.067,2.784 1.679,2.208C1.29,1.631 0.771,1.171 0.123,0.821C-0.524,0.472 -1.34,0.296 -2.31,0.296C-3.411,0.296 -4.332,0.511 -5.065,0.935C-5.805,1.36 -6.392,1.991 -6.847,2.827C-7.297,3.663 -7.61,4.694 -7.802,5.917C-7.985,7.14 -8.081,8.565 -8.081,10.186L-8.081,14.719L2.743,14.719L2.743,18.354L-8.081,18.354L-8.081,45.972C-8.081,47.173 -7.912,48.134 -7.576,48.858C-7.237,49.583 -6.787,50.138 -6.228,50.526C-5.668,50.913 -4.999,51.167 -4.22,51.293C-3.448,51.419 -2.637,51.48 -1.787,51.48L0,51.48Z" style="fill:white;fill-rule:nonzero;"/>
                </g>
                <g transform="matrix(1,0,0,1,394.047,306.179)">
                    <path d="M0,51.48L0,54.704L-23.147,54.704L-23.147,51.48L-22.698,51.48C-21.824,51.48 -21.008,51.419 -20.245,51.293C-19.483,51.167 -18.82,50.913 -18.264,50.526C-17.698,50.138 -17.252,49.583 -16.91,48.858C-16.573,48.134 -16.405,47.173 -16.405,45.972L-16.405,18.354L-23.413,18.354L-23.413,14.719L-16.405,14.719L-16.405,10.899C-16.405,8.601 -16.096,6.579 -15.472,4.831C-14.85,3.084 -13.949,1.61 -12.771,0.411C-11.6,-0.789 -10.178,-1.694 -8.504,-2.306C-6.829,-2.917 -4.944,-3.224 -2.846,-3.224C-0.848,-3.224 0.84,-3.093 2.209,-2.832C3.58,-2.568 4.691,-2.202 5.523,-1.726C6.362,-1.249 6.969,-0.688 7.346,-0.041C7.718,0.61 7.906,1.334 7.906,2.132C7.906,2.833 7.748,3.45 7.437,3.987C7.124,4.526 6.687,4.974 6.127,5.336C5.562,5.7 4.9,5.974 4.144,6.159C3.381,6.347 2.537,6.44 1.613,6.44C1.613,5.667 1.531,4.913 1.369,4.175C1.205,3.437 0.931,2.784 0.546,2.208C0.158,1.631 -0.358,1.171 -1.011,0.821C-1.662,0.472 -2.473,0.296 -3.443,0.296C-4.545,0.296 -5.463,0.511 -6.196,0.935C-6.936,1.36 -7.526,1.991 -7.979,2.827C-8.427,3.663 -8.745,4.694 -8.934,5.917C-9.119,7.14 -9.212,8.565 -9.212,10.186L-9.212,14.719L1.613,14.719L1.613,18.354L-9.212,18.354L-9.212,45.972C-9.212,47.173 -9.047,48.134 -8.71,48.858C-8.372,49.583 -7.918,50.138 -7.361,50.526C-6.797,50.913 -6.129,51.167 -5.357,51.293C-4.581,51.419 -3.772,51.48 -2.92,51.48L0,51.48Z" style="fill:white;fill-rule:nonzero;"/>
                </g>
                <g transform="matrix(1,0,0,1,291.718,340.39)">
                    <path d="M0,-0.152C0,2.695 0.187,5.205 0.562,7.377C0.937,9.551 1.543,11.369 2.381,12.828C3.215,14.291 4.303,15.396 5.641,16.144C6.974,16.894 8.604,17.269 10.525,17.269C12.449,17.269 14.074,16.894 15.397,16.144C16.72,15.396 17.795,14.291 18.619,12.828C19.443,11.369 20.035,9.551 20.398,7.377C20.761,5.205 20.941,2.695 20.941,-0.152C20.941,-3 20.752,-5.496 20.381,-7.643C20.004,-9.792 19.404,-11.584 18.582,-13.019C17.758,-14.457 16.676,-15.536 15.343,-16.259C14.006,-16.984 12.375,-17.347 10.45,-17.347C8.529,-17.347 6.906,-16.984 5.583,-16.259C4.257,-15.536 3.184,-14.457 2.36,-13.019C1.536,-11.584 0.937,-9.792 0.562,-7.643C0.187,-5.496 0,-3 0,-0.152M28.398,-0.152C28.398,7.068 26.867,12.437 23.81,15.957C20.748,19.478 16.272,21.24 10.375,21.24C7.604,21.24 5.12,20.803 2.924,19.928C0.727,19.055 -1.142,17.732 -2.678,15.957C-4.217,14.187 -5.388,11.955 -6.199,9.271C-7.012,6.586 -7.418,3.447 -7.418,-0.152C-7.418,-7.32 -5.898,-12.652 -2.865,-16.146C0.17,-19.644 4.658,-21.392 10.603,-21.392C13.375,-21.392 15.859,-20.962 18.057,-20.099C20.254,-19.24 22.123,-17.927 23.658,-16.166C25.197,-14.406 26.367,-12.196 27.179,-9.537C27.992,-6.875 28.398,-3.747 28.398,-0.152" style="fill:white;fill-rule:nonzero;"/>
                </g>
                <g transform="matrix(1,0,0,1,502.209,445.787)">
                    <path d="M0,-56.562C-1.156,-56.452 -5.84,-55.9 -7.381,-55.791C-8.922,-55.681 -20.322,-54.249 -20.82,-54.249C-21.312,-54.249 -21.92,-54.029 -22.25,-53.312C-22.582,-52.597 -22.031,-50.449 -20.984,-49.677C-19.937,-48.906 -18.066,-49.236 -18.066,-49.236C-18.066,-49.236 -20.047,-44.28 -20.873,-42.078C-21.699,-39.874 -26.16,-28.639 -26.381,-27.703C-26.602,-26.767 -25.83,-25.553 -25.279,-25.004C-24.73,-24.453 -23.848,-24.563 -23.297,-25.114C-22.746,-25.665 -22.801,-25.885 -22.471,-26.821C-22.141,-27.757 -19.937,-33.156 -19.057,-35.192C-18.174,-37.23 -12.172,-50.339 -12.172,-50.339C-12.172,-50.339 -7.051,-51.384 -5.012,-51.715C-2.975,-52.045 0.771,-52.982 2.313,-53.698C3.855,-54.414 4.186,-55.129 4.352,-56.067C4.516,-57.004 1.156,-56.671 0,-56.562M-145.978,-23.903C-145.404,-25.471 -144.191,-26.624 -143.79,-26.625C-143.214,-26.63 -143.856,-24.101 -144.396,-22.799C-145.075,-21.162 -147.244,-17.629 -147.244,-17.629C-147.062,-20.911 -146.369,-22.833 -145.978,-23.903M-51.795,-9.803C-52.234,-9.417 -53.227,-7.214 -53.885,-6.442C-54.549,-5.671 -54.988,-5.671 -55.373,-6.719C-55.76,-7.765 -56.584,-16.082 -56.584,-17.458C-56.584,-18.833 -56.641,-20.542 -57.191,-21.865C-57.742,-23.185 -60.055,-22.965 -61.102,-22.579C-62.146,-22.194 -66.773,-16.686 -68.537,-14.484C-70.299,-12.281 -73.824,-7.986 -74.484,-7.656C-75.145,-7.324 -75.09,-11.234 -75.035,-13.439C-74.98,-15.641 -73.988,-20.102 -73.988,-20.102C-73.988,-20.102 -70.244,-27.92 -69.143,-30.126C-68.041,-32.329 -66.5,-35.468 -66.225,-36.514C-65.947,-37.562 -65.783,-39.489 -68.703,-40.48C-71.619,-41.472 -74.773,-35.698 -76.248,-31.614C-77.164,-29.073 -78.563,-20.763 -78.563,-20.763C-78.945,-20.046 -81.922,-14.374 -83.081,-12.501C-84.24,-10.628 -86.881,-7.324 -87.266,-7.048C-87.653,-6.774 -88.588,-6.057 -89.029,-6.884C-89.47,-7.71 -89.029,-12.556 -88.699,-13.989C-88.368,-15.419 -86.386,-17.568 -85.726,-18.12C-85.064,-18.669 -84.843,-19.166 -84.68,-20.102C-84.513,-21.038 -86.09,-22.122 -86.881,-22.194C-87.594,-22.261 -89.083,-22.36 -89.856,-21.259C-90.627,-20.158 -92.885,-18.174 -93.435,-17.679C-93.986,-17.183 -95.473,-16.412 -95.473,-16.412C-95.473,-16.412 -96.244,-21.919 -96.41,-23.076C-96.575,-24.233 -96.74,-25.83 -96.63,-26.821C-96.52,-27.813 -96.795,-28.859 -97.621,-29.63C-98.447,-30.401 -100.76,-29.85 -101.422,-29.575C-102.082,-29.298 -102.137,-28.144 -102.909,-27.373C-103.679,-26.601 -107.644,-20.377 -109.187,-17.844C-110.729,-15.311 -115.08,-8.426 -115.741,-7.986C-116.402,-7.544 -117.007,-10.078 -117.558,-13.326C-118.11,-16.578 -117.449,-21.534 -117.228,-22.579C-117.007,-23.627 -117.118,-24.342 -117.613,-24.728C-118.11,-25.114 -119.431,-25.553 -120.092,-25.553C-120.752,-25.553 -121.91,-25.004 -122.68,-23.957C-123.453,-22.911 -129.29,-14.43 -129.29,-14.43L-127.747,-24.507L-127.527,-26.05C-127.308,-27.592 -129.124,-28.033 -129.786,-28.199C-130.446,-28.363 -131.052,-28.252 -131.328,-28.199C-131.604,-28.144 -132.264,-28.088 -132.484,-27.095C-132.704,-26.105 -134.082,-15.311 -134.082,-15.311C-138.102,-8.976 -140.36,-7.214 -141.681,-6.167C-143.003,-5.122 -144.05,-5.342 -145.207,-6.442C-146.364,-7.544 -146.859,-11.509 -146.859,-11.509C-143.114,-16.467 -139.975,-21.919 -139.203,-24.783C-138.432,-27.647 -140.18,-30.627 -143.169,-30.952C-147.74,-31.447 -149.876,-26.409 -150.604,-24.673C-152.751,-19.551 -151.926,-12.226 -151.926,-12.226C-155.835,-6.884 -157.709,-5.232 -158.149,-4.846C-158.59,-4.461 -159.417,-4.129 -160.132,-5.232C-160.848,-6.333 -161.233,-9.417 -161.509,-12.447C-161.784,-15.476 -161.618,-19.386 -161.289,-22.857C-160.958,-26.324 -159.582,-31.888 -159.086,-33.429C-158.59,-34.972 -157.434,-38.608 -157.158,-40.095C-156.882,-41.582 -158.479,-42.022 -159.251,-42.131C-160.022,-42.243 -161.233,-41.857 -161.564,-41.637C-161.895,-41.416 -162.76,-40.081 -163.491,-39.213C-164.979,-37.451 -169.165,-31.502 -170.596,-29.41C-172.029,-27.316 -174.177,-23.516 -175.552,-21.314C-176.929,-19.113 -178.858,-15.531 -178.858,-15.531C-178.473,-19.166 -176.656,-28.859 -176.104,-31.723C-175.552,-34.586 -172.469,-45.823 -172.083,-47.53C-171.697,-49.236 -172.193,-49.787 -172.799,-50.283C-173.406,-50.778 -175.333,-50.724 -175.664,-50.668C-175.994,-50.613 -176.656,-50.339 -176.875,-49.898C-177.096,-49.458 -181.281,-43.894 -183.54,-40.59C-185.797,-37.285 -191.801,-27.095 -194.334,-22.69C-196.868,-18.285 -200.747,-9.145 -200.943,-8.702C-201.092,-8.367 -200.962,-7.792 -200.668,-7.214C-200.264,-6.421 -199.126,-5.506 -197.969,-5.671C-196.813,-5.837 -196.097,-7.104 -195.436,-9.417C-194.775,-11.73 -191.5,-18.461 -189.598,-21.919C-186.559,-27.444 -180.786,-37.01 -180.015,-38.221C-179.471,-39.075 -179.519,-37.837 -179.794,-36.35C-180.069,-34.863 -182.107,-24.012 -182.383,-22.139C-182.658,-20.267 -184.145,-9.032 -184.145,-7.269C-184.145,-5.506 -183.099,-4.405 -181.612,-4.02C-180.125,-3.634 -178.858,-5.396 -178.252,-6.553C-177.647,-7.71 -173.681,-15.805 -171.752,-19.113C-169.826,-22.416 -166.135,-28.252 -165.695,-28.969C-165.253,-29.684 -165.253,-28.639 -165.253,-28.639C-165.53,-26.767 -166.135,-19.439 -166.081,-14.54C-166.025,-9.637 -164.868,-4.681 -162.831,-2.147C-160.793,0.387 -157.543,0.111 -155.396,-1.322C-153.248,-2.752 -150.328,-6.938 -150.328,-6.938C-149.062,-4.35 -146.143,-1.431 -143.5,-1.265C-140.856,-1.101 -138.928,-2.587 -137.771,-3.745C-136.615,-4.9 -134.797,-7.82 -134.797,-7.82C-134.797,-7.82 -134.963,-6.057 -134.797,-5.122C-134.632,-4.184 -133.53,-2.974 -132.429,-2.752C-131.328,-2.533 -130.116,-3.634 -129.235,-4.9C-128.353,-6.167 -123.231,-15.145 -122.956,-15.586C-122.68,-16.026 -122.406,-15.75 -122.294,-15.201C-122.185,-14.649 -121.799,-11.84 -121.194,-9.253C-120.588,-6.664 -119.155,-4.846 -117.725,-3.798C-116.292,-2.752 -113.703,-3.249 -112.381,-4.736C-111.06,-6.223 -108.526,-10.024 -106.322,-13.877C-104.122,-17.729 -101.697,-21.587 -101.422,-21.974C-101.146,-22.36 -100.871,-22.194 -100.815,-21.808C-100.76,-21.423 -100.541,-20.046 -100.264,-18.394C-99.989,-16.743 -99.879,-12.832 -99.879,-12.832C-102.744,-10.795 -103.625,-9.197 -104.615,-7.16C-105.607,-5.122 -104.121,-3.524 -103.348,-3.028C-102.578,-2.533 -100.208,-2.752 -97.731,-4.736C-95.253,-6.719 -95.363,-11.07 -95.363,-11.07L-93.656,-12.556C-93.876,-5.727 -92.609,-3.745 -90.736,-2.478C-88.865,-1.21 -86.552,-2.203 -84.568,-3.91C-82.585,-5.618 -79.441,-10.519 -79.441,-10.519C-79.498,-9.253 -79.221,-6.333 -77.844,-4.35C-76.467,-2.368 -74.045,-2.643 -72.336,-3.634C-70.629,-4.625 -66.939,-9.141 -65.729,-10.738C-64.648,-12.164 -62.785,-14.289 -61.873,-15.145C-61.301,-15.681 -61.213,-14.87 -61.213,-14.87C-59.779,-3.469 -58.514,-2.203 -56.971,-0.879C-55.428,0.442 -52.73,-0.77 -51.574,-2.643C-50.418,-4.515 -50.197,-7.875 -50.252,-8.59C-50.305,-9.307 -51.354,-10.188 -51.795,-9.803M-31.615,-52.211C-32.387,-52.266 -32.77,-52.266 -33.156,-52.211C-33.541,-52.155 -35.855,-46.98 -36.846,-44.555C-37.838,-42.131 -40.813,-31.172 -40.867,-30.07C-40.922,-28.969 -40.041,-28.088 -39.602,-27.92C-39.158,-27.757 -38.168,-27.373 -37.617,-28.53C-37.066,-29.684 -34.422,-37.121 -33.486,-39.654C-32.551,-42.187 -29.74,-47.805 -29.246,-48.797C-28.75,-49.787 -29.08,-50.668 -29.467,-51.111C-29.852,-51.549 -30.844,-52.155 -31.615,-52.211" style="fill:white;fill-rule:nonzero;"/>
                </g>
            </g>
        </g>
    </g>
</svg>
