<?xml version="1.0" encoding="UTF-8" standalone="no"?>
<!DOCTYPE svg PUBLIC "-//W3C//DTD SVG 1.1//EN" "http://www.w3.org/Graphics/SVG/1.1/DTD/svg11.dtd">
<svg width="100%" height="100%" viewBox="0 0 582 251" version="1.1" xmlns="http://www.w3.org/2000/svg" xmlns:xlink="http://www.w3.org/1999/xlink" xml:space="preserve" xmlns:serif="http://www.serif.com/" style="fill-rule:evenodd;clip-rule:evenodd;stroke-linejoin:round;stroke-miterlimit:2;">
    <g transform="matrix(0.860848,0,0,0.840933,41.4791,20.9206)">
        <g id="g6">
            <g>
                <g id="g8">
                    <path id="path10" d="M291.315,77.348L7.083,77.348C3.952,77.348 1.416,74.785 1.416,71.626C1.416,69.438 2.619,67.538 4.396,66.574C4.519,66.506 5.025,66.273 5.025,66.273C48.236,44.925 155.034,0.177 291.287,0.177C427.54,0.177 534.339,44.925 577.549,66.274C577.549,66.274 578.055,66.506 578.178,66.575C579.955,67.539 581.158,69.439 581.158,71.627C581.158,74.785 578.622,77.349 575.491,77.349L291.315,77.349" style="fill:rgb(103,159,255);fill-rule:nonzero;"/>
                </g>
                <g id="g12">
                    <path id="path14" d="M291.315,173.222L7.083,173.222C3.952,173.222 1.416,175.779 1.416,178.951C1.416,181.132 2.619,183.025 4.396,183.996C4.519,184.064 5.025,184.297 5.025,184.297C48.235,205.639 155.033,250.38 291.287,250.38C427.541,250.38 534.339,205.638 577.549,184.296C577.549,184.296 578.055,184.064 578.178,183.995C579.955,183.024 581.158,181.131 581.158,178.95C581.158,175.778 578.622,173.221 575.491,173.221L291.315,173.221" style="fill:rgb(103,159,255);fill-rule:nonzero;"/>
                </g>
                <g id="g16">
                    <path id="polyline18" d="M503.202,158.682L580.509,158.682L580.509,146.343L530.039,146.343L579.224,103.536L579.224,91.943L504.753,91.943L504.753,104.288L552.386,104.288L503.202,147.088L503.202,158.682" style="fill:rgb(103,159,255);fill-rule:nonzero;"/>
                </g>
                <g id="g20">
                    <g id="g22">
                        <path id="path24" d="M448.487,151.367L448.487,91.874L469.87,91.874L469.87,146.329L499.9,146.329L499.9,158.682L429.292,158.682L422.251,144.682L385.706,144.682L378.398,158.682L342.044,158.682L342.044,109.723L341.798,109.723L322.548,158.682L303.715,158.682L284.465,110.181L284.205,110.181L284.205,158.682L264.627,158.682L264.627,91.943L294.589,91.943L313.573,140.177L313.826,140.177L331.675,91.943L361.637,91.943L361.637,150.103L393.52,91.943L416.393,91.943L448.487,151.367M404.046,108.39L391.488,132.876L416.467,132.876L404.313,108.39L404.046,108.39Z" style="fill:rgb(103,159,255);fill-rule:nonzero;"/>
                    </g>
                </g>
                <g id="g26">
                    <path id="polyline28" d="M176.416,158.689L196.999,158.689L196.999,131.379L234.898,131.379L234.898,158.689L255.488,158.689L255.488,91.949L234.898,91.949L234.898,118.302L196.999,118.302L196.999,91.949L176.416,91.949L176.416,158.689" style="fill:rgb(103,159,255);fill-rule:nonzero;"/>
                </g>
                <g id="g30">
                    <path id="path32" d="M172.431,114.173C169.129,98.833 151.998,91.204 130.875,91.204C98.78,91.204 83.844,106.339 83.844,127.708C83.844,143.848 96.969,160.903 130.704,160.903C154.247,160.903 169.655,149.214 171.85,136.205L151.404,136.205C149.688,141.913 143.611,148.681 130.705,148.681C111.735,148.681 105.132,137.395 105.132,127.64C105.132,115.219 111.599,102.949 130.569,102.949C141.062,102.949 149.361,107.666 151.658,114.174L172.431,114.174" style="fill:rgb(103,159,255);fill-rule:nonzero;"/>
                </g>
                <g id="g34">
                    <path id="path36" d="M0.849,138.858C4.807,154.177 18.957,160.917 42.09,160.917C68.552,160.917 82.6,151.784 82.6,139.575C82.6,124.481 60.834,121.665 53.746,120.455C29.328,116.162 23.142,116.224 23.142,110.14C23.142,104.644 32.213,102.579 39.371,102.579C49.598,102.579 56.208,103.29 60.139,112.026L79.403,112.026C78.384,97.26 60.645,91.217 40.322,91.217C21.441,91.217 3.647,97.991 3.647,111.602C3.647,124.946 18.139,128.391 32.597,131.002C46.918,133.613 61.868,134.078 61.868,141.256C61.868,148.065 50.418,149.555 42.912,149.555C31.455,149.555 24.277,146.827 21.037,138.857L0.849,138.857" style="fill:rgb(103,159,255);fill-rule:nonzero;"/>
                </g>
            </g>
        </g>
    </g>
</svg>
