<?xml version="1.0" encoding="UTF-8" standalone="no"?>
<!DOCTYPE svg PUBLIC "-//W3C//DTD SVG 1.1//EN" "http://www.w3.org/Graphics/SVG/1.1/DTD/svg11.dtd">
<svg width="100%" height="100%" viewBox="0 0 400 400" version="1.1" xmlns="http://www.w3.org/2000/svg"
     xml:space="preserve"
     style="fill-rule:evenodd;clip-rule:evenodd;stroke-linejoin:round;stroke-miterlimit:2;">
    <g transform="matrix(0.80913,0,0,1.03845,14.0313,-35.8332)">
        <g transform="matrix(0.154952,-0.0108863,0.0196777,0.170041,367.645,235.409)">
            <g transform="matrix(0.995962,0.0637633,-0.12648,0.995963,-2207.37,-157.704)">
                <circle cx="237.126" cy="248.951" r="166.331" style="fill:rgb(253,212,183);"/>
            </g>
            <circle cx="237.126" cy="248.951" r="166.331" style="fill:rgb(253,212,183);"/>
        </g>
        <path d="M237.126,82.62C368.442,82.246 403.457,157.151 403.457,248.951C403.457,340.752 328.927,415.282 237.126,415.282C145.325,415.282 70.795,340.752 70.795,248.951C70.795,157.151 93.516,83.029 237.126,82.62Z" style="fill:url(#_Linear1);"/>
    </g>
    <path d="M169.699,315.268C187.871,322.266 223.236,324.383 245.221,314.633C248.946,312.981 250.786,312.928 254.147,316.024C255.843,317.585 256.936,322.878 255.354,325.225C253.536,327.922 230.226,347.823 206.55,348.23C185.615,348.589 160.796,331.188 157.7,324.38C155.69,319.961 158.537,317.582 159.299,316.018C160.903,312.722 166.455,314.019 169.699,315.268Z" style="fill:rgb(226,180,137);"/>
    <path d="M206.022,279.221C211.166,279.194 221.453,279.267 221.453,279.267C221.453,279.267 226.745,280.919 226.093,285.305C225.441,289.69 214.478,299.452 207.07,298.488C199.662,297.524 190.326,294.743 187.037,287.501C184.194,281.238 188.201,279.922 189.684,279.437C195.596,277.501 200.727,279.25 206.022,279.221Z" style="fill:rgb(188,129,86);"/>
    <g transform="matrix(0.559371,0,0,0.559371,74.0877,127.042)">
        <g transform="matrix(1,0,0,1.13431,-10.2206,-36.8368)">
            <circle cx="150.876" cy="196.602" r="46.461" style="fill:white;"/>
        </g>
        <g transform="matrix(0.632618,0,0,0.613009,45.6817,85.9073)">
            <circle cx="150.876" cy="196.602" r="46.461" style="fill:rgb(107,89,0);"/>
        </g>
    </g>
    <g transform="matrix(0.559371,0,0,0.559371,175.89,126.016)">
        <g transform="matrix(1,0,0,1.13431,-10.2206,-36.8368)">
            <circle cx="150.876" cy="196.602" r="46.461" style="fill:white;"/>
        </g>
        <g transform="matrix(0.632618,0,0,0.613009,45.6817,85.9073)">
            <circle cx="150.876" cy="196.602" r="46.461" style="fill:rgb(107,89,0);"/>
        </g>
    </g>
    <g transform="matrix(0.838593,0,0,0.838593,25.3946,21.5409)">
        <path d="M130.314,212.537C130.314,212.537 151.751,190.659 172.202,212.012C174.478,214.389 178.256,214.471 180.632,212.194C183.009,209.918 183.09,206.141 180.814,203.764C152.015,173.694 121.824,204.164 121.824,204.164C119.513,206.507 119.539,210.285 121.882,212.596C124.225,214.906 128.003,214.88 130.314,212.537Z" style="fill:rgb(164,107,0);"/>
    </g>
    <g transform="matrix(0.838593,0,0,0.838593,124.971,21.4608)">
        <path d="M130.314,212.537C130.314,212.537 151.751,190.659 172.202,212.012C174.478,214.389 178.256,214.471 180.632,212.194C183.009,209.918 183.09,206.141 180.814,203.764C152.015,173.694 121.824,204.164 121.824,204.164C119.513,206.507 119.539,210.285 121.882,212.596C124.225,214.906 128.003,214.88 130.314,212.537Z" style="fill:rgb(164,107,0);"/>
    </g>
    <defs>
        <linearGradient id="_Linear1" x1="0" y1="0" x2="1" y2="0" gradientUnits="userSpaceOnUse" gradientTransform="matrix(332.342,-4.07267,5.22693,258.951,71.1149,253.023)"><stop offset="0" style="stop-color:rgb(252,183,137);stop-opacity:1"/><stop offset="0.19" style="stop-color:rgb(253,206,175);stop-opacity:1"/><stop offset="0.5" style="stop-color:rgb(253,211,183);stop-opacity:1"/><stop offset="0.81" style="stop-color:rgb(253,207,176);stop-opacity:1"/><stop offset="0.91" style="stop-color:rgb(253,196,157);stop-opacity:1"/><stop offset="1" style="stop-color:rgb(252,183,137);stop-opacity:1"/></linearGradient>
    </defs>
</svg>
