<?xml version="1.0" encoding="UTF-8" standalone="no"?>
<!DOCTYPE svg PUBLIC "-//W3C//DTD SVG 1.1//EN" "http://www.w3.org/Graphics/SVG/1.1/DTD/svg11.dtd">
<svg width="100%" height="100%" viewBox="0 0 1000 500" version="1.1" xmlns="http://www.w3.org/2000/svg"
     xml:space="preserve" style="fill-rule:evenodd;clip-rule:evenodd;stroke-linejoin:round;stroke-miterlimit:2;">
    <g transform="matrix(3.83299,0,0,3.83299,-785.042,-655.941)">
        <path d="M232.622,234.785C232.354,235.114 232.17,235.512 232.097,235.946L229.236,252.936C229.18,253.113 229.142,253.297 229.126,253.487L229.109,253.69L227.256,264.697C227.11,265.561 227.427,266.438 228.091,267.008C228.755,267.579 229.669,267.761 230.501,267.488L258.201,258.388C258.541,258.276 258.846,258.096 259.102,257.863C259.462,257.665 259.793,257.4 260.076,257.07L311.71,197.011C312.987,195.526 312.818,193.284 311.333,192.007L289.804,173.498C288.318,172.221 286.076,172.39 284.799,173.875L233.165,233.934C232.939,234.197 232.758,234.484 232.622,234.785ZM234.339,252.741L241.26,258.691L252.299,255.064L236.269,241.283L234.339,252.741Z" style="fill:white;fill-opacity:0.24;"/>
    </g>
    <g transform="matrix(1,0,0,1,-4.28097,7.05097)">
        <path d="M70.165,378.521C70.165,378.521 56.552,393.845 50.849,410.336C46.044,424.23 46.773,438.585 59.015,448.55C67.25,455.253 78.06,459.308 91.037,461.021C108.233,463.292 129.579,461.46 153.35,457.484C209.507,448.091 280.005,426.637 339.615,425.878C419.11,424.866 463.064,438.002 502.418,449.171C543.668,460.878 580.099,470.475 644.122,461.286C707.624,452.173 764.607,441.153 814.903,436.074C863.504,431.165 905.664,431.705 941.174,445.817C946.303,447.855 952.121,445.346 954.16,440.217C956.198,435.088 953.689,429.269 948.56,427.231C917.867,415.033 882.61,411.857 842.841,413.858C785.305,416.752 718.016,430.476 641.281,441.489C581.003,450.14 546.715,440.953 507.878,429.931C467.145,418.37 421.642,404.832 339.361,405.879C278.789,406.65 207.114,428.213 150.05,437.758C131.975,440.782 115.446,442.578 101.356,441.876C89.102,441.265 78.857,438.912 71.641,433.039C66.542,428.888 67.749,422.66 69.75,416.873C74.247,403.871 85.077,391.849 85.077,391.849C88.755,387.734 88.4,381.407 84.285,377.729C80.17,374.051 73.844,374.406 70.165,378.521Z" style="fill:white;fill-opacity:0.24;"/>
    </g>
</svg>
